<svg width="16" height="16" viewBox="0 0 16 16" fill="none" xmlns="http://www.w3.org/2000/svg">
<path d="M10.4688 5.46875C10.75 5.1875 11.2188 5.1875 11.5 5.5C11.8125 5.78125 11.8125 6.25 11.5 6.53125L7.5 10.5312C7.375 10.6875 7.1875 10.75 7 10.75C6.78125 10.75 6.59375 10.6875 6.4375 10.5312L4.4375 8.53125C4.125 8.25 4.125 7.78125 4.4375 7.46875C4.71875 7.1875 5.1875 7.1875 5.5 7.46875L7 8.96875L10.4688 5.46875ZM8 0C12.4062 0 16 3.59375 16 8C16 12.4375 12.4062 16 8 16C3.5625 16 0 12.4375 0 8C0 3.59375 3.5625 0 8 0ZM8 14.5C11.5625 14.5 14.5 11.5938 14.5 8C14.5 4.4375 11.5625 1.5 8 1.5C4.40625 1.5 1.5 4.4375 1.5 8C1.5 11.5938 4.40625 14.5 8 14.5Z" fill="#42814A"/>
</svg>
