<svg width="24" height="24" viewBox="0 0 24 24" fill="none" xmlns="http://www.w3.org/2000/svg">
<path d="M10.0764 2.65203C10.2375 2.49201 10.4547 2.40121 10.6818 2.39897C10.9088 2.39673 11.1278 2.48322 11.292 2.64003C11.3724 2.71624 11.4367 2.80781 11.4811 2.90932C11.5255 3.01082 11.5491 3.12021 11.5504 3.23099C11.5518 3.34176 11.5309 3.45169 11.4889 3.55424C11.447 3.6568 11.385 3.7499 11.3064 3.82803L3.26643 11.8764L11.7504 20.166C11.8299 20.2432 11.8931 20.3355 11.9362 20.4376C11.9794 20.5396 12.0016 20.6493 12.0016 20.76C12.0016 20.8708 11.9794 20.9805 11.9362 21.0825C11.8931 21.1845 11.8299 21.2769 11.7504 21.354C11.5877 21.5118 11.3699 21.6 11.1432 21.6C10.9166 21.6 10.6988 21.5118 10.536 21.354L1.45203 12.48C1.37308 12.4034 1.31021 12.3117 1.2671 12.2104C1.22399 12.1092 1.2015 12.0003 1.20094 11.8903C1.20038 11.7802 1.22177 11.6712 1.26385 11.5695C1.30593 11.4678 1.36786 11.3755 1.44603 11.298L10.0764 2.65203ZM20.8764 2.65203C21.0375 2.49237 21.2544 2.40179 21.4812 2.39955C21.708 2.39731 21.9267 2.48358 22.0908 2.64003C22.1712 2.71624 22.2355 2.80781 22.2799 2.90932C22.3243 3.01082 22.3479 3.12021 22.3492 3.23099C22.3506 3.34176 22.3297 3.45169 22.2877 3.55424C22.2458 3.6568 22.1838 3.7499 22.1052 3.82803L14.0652 11.8764L22.5492 20.166C22.6287 20.2432 22.6919 20.3355 22.735 20.4376C22.7782 20.5396 22.8004 20.6493 22.8004 20.76C22.8004 20.8708 22.7782 20.9805 22.735 21.0825C22.6919 21.1845 22.6287 21.2769 22.5492 21.354C22.3865 21.5118 22.1687 21.6 21.942 21.6C21.7154 21.6 21.4976 21.5118 21.3348 21.354L12.252 12.48C12.1731 12.4034 12.1102 12.3117 12.0671 12.2104C12.024 12.1092 12.0015 12.0003 12.0009 11.8903C12.0004 11.7802 12.0218 11.6712 12.0639 11.5695C12.1059 11.4678 12.1679 11.3755 12.246 11.298L20.8764 2.65203Z" fill="white"/>
</svg>
