<svg width="17" height="14" viewBox="0 0 17 14" fill="none" xmlns="http://www.w3.org/2000/svg">
<path d="M15.8457 12.0312C16.3457 12.9062 15.7207 14 14.6894 14H1.34573C0.314477 14 -0.310523 12.9062 0.158227 12.0312L6.84573 0.65625C7.12698 0.21875 7.56448 0 8.03323 0C8.47073 0 8.90823 0.21875 9.18948 0.65625L15.8457 12.0312ZM1.65823 12.5H14.377L8.00198 1.65625L1.65823 12.5ZM8.03323 9.5625C8.56448 9.5625 9.00198 10 9.00198 10.5312C9.00198 11.0625 8.56448 11.5 8.03323 11.5C7.47073 11.5 7.03323 11.0625 7.03323 10.5312C7.03323 10 7.47073 9.5625 8.03323 9.5625ZM7.28323 4.75C7.28323 4.34375 7.59573 4 8.03323 4C8.43948 4 8.78323 4.34375 8.78323 4.75V7.75C8.78323 8.1875 8.43948 8.5 8.03323 8.5C7.59573 8.5 7.28323 8.1875 7.28323 7.75V4.75Z" fill="#F8BB47"/>
</svg>
